<svg t="1679541016486" class="icon" viewBox="0 0 1024 1024" version="1.1" xmlns="http://www.w3.org/2000/svg" p-id="19533" width="128" height="128" xmlns:xlink="http://www.w3.org/1999/xlink">
    <path d="M512 37.532C249.969 37.532 37.532 249.97 37.532 512S249.97 986.468 512 986.468 986.468 774.03 986.468 512 774.03 37.532 512 37.532z" fill="#01579B" p-id="19534"></path>
    <path d="M761.72 432.09c0-14.984 0-72.42-37.458-117.369-2.497-2.497-4.995-7.491-4.995-9.988-2.497-2.498-2.497-4.995-4.994-9.99l-4.994-7.49-4.995-7.492c-4.994-7.492-7.491-12.486-7.491-12.486-9.99-14.984-12.486-34.961-2.498-52.442 2.498-4.994 7.492-9.988 9.99-14.983-2.498-2.497-4.995-4.994-7.492-4.994h-2.498c-7.491-4.995-14.983-9.989-19.977-14.983l-17.48-12.486c-12.487-7.492-19.978-9.99-19.978-12.486-17.48-9.99-27.47-27.47-24.972-47.447 2.497-19.978 14.983-37.458 34.96-42.452 2.498 0 7.492-2.498 12.487-2.498l-2.498-2.497C611.887 45.024 561.944 37.532 512 37.532c-184.793 0-347.11 107.38-424.524 262.206v12.486c0 179.798 157.324 324.636 349.608 324.636 147.335 0 272.195-84.905 324.636-204.77z" fill="#0277BD" p-id="19535"></path>
    <path d="M661.832 112.448s7.491-2.497 22.475-2.497h24.972c9.988 0 19.977 2.497 32.463 4.995s24.972 7.491 37.458 12.486 27.47 12.486 39.955 22.474c12.486 7.492 24.972 19.978 37.458 29.967 12.486 9.988 22.475 24.972 32.464 37.458 7.491 14.983 17.48 27.469 24.972 42.452 7.491 14.983 12.486 29.966 17.48 44.95 4.995 14.983 7.492 29.966 9.989 42.452 2.497 14.983 2.497 27.47 2.497 37.458v17.48c0 4.995 0 9.99-2.497 14.983 0 9.99-2.497 17.48-2.497 24.972 0 12.486-2.497 19.978-2.497 19.978s-4.995-7.492-9.99-19.978c-2.496-4.994-7.49-12.486-9.988-22.474-2.497-7.492-7.492-17.48-12.486-27.47-4.994-9.988-9.989-19.977-14.983-32.463-4.995-9.989-12.486-22.475-17.48-34.96-4.995-12.487-12.486-22.476-19.978-34.962-7.492-12.486-14.983-22.474-22.475-32.463-7.491-9.989-14.983-22.475-24.972-29.967-9.989-9.988-17.48-19.977-27.469-27.469-7.492-9.989-17.48-17.48-27.47-24.972-9.988-7.491-17.48-14.983-27.468-19.977-7.492-7.492-17.48-12.486-24.972-17.48-7.492-4.995-14.984-9.99-19.978-12.487-7.492-7.491-14.983-12.486-14.983-12.486z" fill="#FFF176" p-id="19536"></path>
    <path d="M988.965 352.18c-7.492-54.939-29.967-104.883-54.939-139.844-12.486-17.48-24.972-29.966-32.463-37.458-9.989-7.491-14.983-12.486-14.983-12.486s0 7.492 2.497 19.978 2.497 27.47 4.994 47.447c2.497 9.988 2.497 19.977 4.995 29.966-9.99-14.983-22.475-29.966-34.961-39.955-12.486-12.486-27.47-19.978-34.96-24.972-12.487-4.995-17.481-7.492-17.481-7.492s2.497 4.995 4.994 14.983c2.497 9.99 7.492 22.475 12.486 39.956 4.995 17.48 12.486 39.955 19.978 62.43-14.983-17.48-29.967-32.464-44.95-42.453-17.48-9.989-32.463-17.48-44.95-19.977-14.983-4.995-22.474-4.995-22.474-4.995s4.994 4.995 9.989 14.983c2.497 4.995 7.491 9.99 9.988 17.48 4.995 7.492 7.492 14.984 12.486 22.476 7.492 14.983 17.48 32.463 24.972 52.44 4.995 9.99 7.492 19.978 12.486 29.967 2.498 9.989 9.99 19.978 12.486 32.464 4.995 9.988 7.492 19.977 12.486 32.463 2.498 9.99 7.492 19.978 9.99 32.464 2.496 9.989 7.49 19.977 9.988 29.966 2.497 9.989 4.994 19.978 9.989 27.47 7.491 17.48 12.486 32.463 17.48 42.452l7.492 14.983s2.497-4.994 7.491-17.48c2.497-4.995 4.995-12.486 4.995-19.978 2.497-7.492 4.994-17.48 4.994-27.47 0-7.49 2.497-14.982 2.497-22.474 2.497 7.492 4.995 12.486 4.995 12.486l7.491-14.983c2.497-4.995 4.995-9.989 7.492-17.48v-2.498c0 4.995 0 12.486 2.497 17.48 0 9.99 2.497 17.481 2.497 24.973v22.474c0 12.486 2.497 19.978 2.497 19.978s4.995-4.994 12.486-14.983c2.498-4.995 7.492-9.989 12.486-17.48 4.995-7.492 7.492-14.984 12.486-24.973s7.492-19.977 9.99-32.463l7.49-37.458c2.498-12.486 2.498-27.47 2.498-39.955 2.497-14.983 0-29.967-2.497-42.453z" fill="#FDD835" p-id="19537"></path>
    <path d="M1013.937 407.118c0-12.486-2.497-19.978-2.497-19.978s-4.995 7.492-12.486 17.48c-7.492 12.486-14.984 27.47-24.972 47.447-7.492 17.48-17.48 37.458-27.47 57.436 0-19.978 0-37.458-2.497-54.939-2.497-14.983-4.994-27.469-7.491-39.955-4.995-12.486-7.492-24.972-12.486-34.96-7.492-22.475-17.48-37.458-24.972-49.944-7.492-12.486-12.486-17.48-12.486-17.48s-2.498 29.966-2.498 74.915c0 22.475-2.497 44.95-4.994 72.419 0 12.486-2.497 24.972-2.497 39.955 0 12.486-2.497 27.47-4.994 39.955v9.989c-2.498-22.475-9.99-44.95-19.978-59.933-7.492-17.48-17.48-29.966-24.972-37.458-9.989-12.486-14.983-14.983-14.983-14.983v17.48c0 9.99 0 24.972-2.497 42.453-2.498 32.463-7.492 74.916-12.486 114.87-2.498 9.99-4.995 19.979-4.995 29.967-2.497 9.99-4.994 19.978-4.994 29.967-2.497 9.988-4.995 19.977-7.492 27.469-2.497 9.989-4.994 17.48-4.994 24.972-2.497 7.491-2.497 17.48-4.995 22.475-2.497 7.491-2.497 12.486-4.994 19.977-2.497 12.486-2.497 19.978-2.497 19.978s4.994-2.497 14.983-9.989c9.989-7.492 22.475-14.983 34.96-29.966 4.995-7.492 12.487-14.984 19.978-24.972 4.995-9.99 12.486-17.48 17.48-27.47 0 7.492-2.496 14.984-2.496 22.475-2.498 7.492-2.498 17.48-4.995 22.475-4.994 14.983-4.994 22.475-4.994 22.475 2.497-2.497 9.989 0 17.48 2.497 0 2.497-2.497 4.994-2.497 4.994l-7.492 22.475c-4.994 12.486-7.491 19.978-7.491 19.978s7.491-2.497 17.48-9.989c4.995-4.994 12.486-7.492 19.978-14.983 7.491-4.995 14.983-12.486 22.474-22.475 7.492-7.492 14.984-17.48 24.972-27.47 7.492-9.988 14.984-22.474 22.475-34.96 14.983-24.972 27.47-52.441 37.458-79.91 9.989-27.47 19.978-57.436 24.972-84.905 4.995-27.47 7.492-52.441 9.989-74.916 0-22.475 0-39.955-2.497-54.938z" fill="#FFB300" p-id="19538"></path>
    <path d="M946.512 671.82c-9.988 4.995-19.977 14.984-34.96 24.973-19.978 14.983-42.453 34.96-64.927 57.435 2.497-7.491 7.491-14.983 9.988-22.475 7.492-22.474 9.99-42.452 12.486-59.932 0-17.48 0-32.464-2.497-42.453-2.497-12.486-4.994-17.48-4.994-17.48s-4.995 4.994-9.99 12.486-14.982 19.977-24.971 32.463-19.978 29.967-29.966 44.95c-2.498 2.497-2.498 4.994-4.995 7.492 4.995-14.984 4.995-32.464 4.995-47.447 0-19.978-4.995-39.955-9.99-54.938-4.994-14.984-12.485-27.47-17.48-34.961-2.497-4.995-7.491-9.989-7.491-9.989s-2.497 4.994-4.995 14.983c-2.497 7.492-7.491 19.978-12.486 34.96-4.994 12.487-7.491 27.47-12.486 44.95-2.497 7.492-4.994 14.984-7.491 24.972-2.497 7.492-4.995 14.984-7.492 19.978-47.447 47.447-104.882 59.933-159.82 62.43-29.967 0-57.436-4.994-82.408-12.486-37.458-12.486-72.419-34.96-104.882-64.927 47.446 4.994 92.396-4.995 129.854-22.475l62.43-39.955c7.492-2.497 14.983-2.497 22.475 0 14.983-2.497 19.977-9.989 14.983-24.972-7.492-9.989-19.978-19.978-32.464-27.47-32.463-17.48-64.927-14.982-99.888 7.492-32.463 17.48-62.43 14.984-94.893-2.497-77.413-39.955-47.447-142.34 34.96-89.899 4.995-24.972-2.497-52.441-17.48-79.91-72.418-132.352 9.99-239.731 37.458-257.212-49.944 4.995-94.893 27.47-134.848 64.927C35.035 184.867 12.56 434.587 12.56 437.084l29.967-27.47c-9.989 27.47-17.48 54.94-19.978 84.906-9.989 97.39 17.48 192.284 82.408 287.177C204.845 909.054 362.168 986.467 512 986.467c169.81 0 279.686-62.43 352.105-142.34l14.983-14.983c14.983-17.48 29.966-34.96 42.452-54.938 12.486-17.48 19.978-37.458 27.47-54.939 4.994-17.48 9.988-32.463 12.486-42.452v-14.983s-4.995 2.497-14.984 9.989z" fill="#FF9800" p-id="19539"></path>
    <path d="M212.336 611.888c-4.994-174.804 107.38-159.82 164.815-139.843-39.955-7.492-57.435 29.966-39.955 64.927-7.491 0-84.905-7.492-124.86 74.916z m157.324 72.419c47.446 4.994 92.396-4.995 129.854-22.475l62.43-39.955c4.994-2.497 12.486-2.497 17.48 0-72.418-42.453-149.832 47.446-319.641 19.977 42.452 32.464 109.877 42.453 109.877 42.453z m-4.995-409.54c-4.994 37.457 2.498 82.407 27.47 129.853 34.96-19.977 69.921-42.452 69.921-42.452s49.944-49.944 0-49.944c-47.447 0-79.91-19.977-97.39-37.458z m-194.781-52.442c-22.475-19.978-57.436-59.933-57.436-109.877 0 0-59.932 97.391-37.458 174.804 22.475-27.469 54.939-49.944 94.894-64.927z" fill="#EF6C00" p-id="19540"></path>
    <path d="M409.6 420.267C439.467 403.2 469.333 384 469.333 384l8.534-8.533-8.534-12.8h-81.066c4.266 19.2 10.666 38.4 21.333 57.6z" fill="#FFCC80" p-id="19541"></path>
    <path d="M462.056 312.224c-7.492 0-14.983 0-22.475-2.497l-2.497 2.497s19.978 32.464 24.972 49.944c0 0 49.944-49.944 0-49.944z" fill="#5D4037" p-id="19542"></path>
</svg>